<svg xmlns="http://www.w3.org/2000/svg" viewBox="0 0 117.33 149.67"><defs><style>.cls-1{fill:none;}.cls-2{fill:#0047ab;}.cls-2,.cls-3{fill-rule:evenodd;}.cls-3{fill:#ffd302;}</style></defs><g id="Layer_2" data-name="Layer 2"><g id="Layer_1-2" data-name="Layer 1"><rect class="cls-1" width="117.33" height="149.67"/><path class="cls-2" d="M73.27,121l9.64,22.39L93.7,126l20,4.11-12.5-29c-7.82,3.34-7.29,4.81-12.08,12.14A17.15,17.15,0,0,1,73.27,121Z"/><path class="cls-2" d="M113.22,42.59c-10.54-9.9-9.15-7.48-12.45-21.56a12.17,12.17,0,0,0-11.32-9.5C75,10.72,77.64,11.68,66.06,3A12.15,12.15,0,0,0,51.28,3c-11.58,8.66-9,7.7-23.4,8.51A12.18,12.18,0,0,0,16.56,21c-3.3,14.08-1.9,11.66-12.45,21.56A12.18,12.18,0,0,0,1.55,57.15c6.52,12.9,6,10.15,4.32,24.51a12.17,12.17,0,0,0,7.39,12.8c13.3,5.7,11.15,3.9,19.07,16a12.21,12.21,0,0,0,13.89,5c13.84-4.19,11.05-4.19,24.89,0a12.21,12.21,0,0,0,13.89-5c7.92-12.11,5.78-10.31,19.08-16a12.18,12.18,0,0,0,7.38-12.8c-1.71-14.36-2.2-11.61,4.33-24.51A12.19,12.19,0,0,0,113.22,42.59ZM58.67,95.91A37.62,37.62,0,1,1,96.28,58.29,37.62,37.62,0,0,1,58.67,95.91Z"/><path class="cls-2" d="M58.67,32.22l21.82,9.35V59.22c0,13-9.27,23-21.82,25.14C46.11,82.17,36.84,72.18,36.84,59.22V41.57Z"/><path class="cls-3" d="M55.77,60.23l-4.93-4.92a3.27,3.27,0,0,0-4.62,4.63l7.24,7.24a3.27,3.27,0,0,0,4.63,0c4.37-4.37,8.69-8.78,13-13.17a3.27,3.27,0,0,0-4.64-4.6Z"/><path class="cls-2" d="M34,149.66l13.63-29.38a17.19,17.19,0,0,1-19.49-7.09c-2.64-4-4.63-8.74-9.15-10.85L3.59,135.48,23.74,132Z"/></g></g></svg>