<svg xmlns="http://www.w3.org/2000/svg" xmlns:xlink="http://www.w3.org/1999/xlink" viewBox="0 0 149.85 72.19"><defs><style>.cls-1{fill:none;}.cls-2{clip-path:url(#clip-path);}.cls-3{fill:#0047ab;}.cls-4{clip-path:url(#clip-path-2);}.cls-5{clip-path:url(#clip-path-3);}.cls-6{font-size:26px;fill:#ffd302;font-family:Oswald-Medium, Oswald;font-weight:500;}.cls-7{letter-spacing:0em;}</style><clipPath id="clip-path"><rect class="cls-1" x="107" y="14.76" width="43" height="48"/></clipPath><clipPath id="clip-path-2"><rect class="cls-1" x="116.33" y="49.43" width="22.67" height="22.57"/></clipPath><clipPath id="clip-path-3"><rect class="cls-1" x="39" y="49.43" width="24" height="22.57"/></clipPath></defs><g id="Layer_2" data-name="Layer 2"><g id="Layer_1-2" data-name="Layer 1"><g class="cls-2"><path class="cls-3" d="M147.44,28.59,137.35,17.72a7.51,7.51,0,0,0-5.54-2.36H111.57l-3.32,46.11h6.29a14.79,14.79,0,0,1,14.52-13.56,12.46,12.46,0,0,1,12.58,13.56h2.45a4.22,4.22,0,0,0,4.13-3.83l1.62-22.16A9.45,9.45,0,0,0,147.44,28.59ZM114.3,31.35l.87-12.1h16.37a4,4,0,0,1,2.88,1.23l10.09,10.87Z"/></g><g class="cls-4"><path class="cls-3" d="M128.85,50.69a11.75,11.75,0,0,0-11.53,10.75,9.88,9.88,0,0,0,10,10.75,11.76,11.76,0,0,0,11.53-10.75A9.88,9.88,0,0,0,128.85,50.69Zm4.76,10.78a6.08,6.08,0,0,1-6,5.57,5.1,5.1,0,0,1-5.15-5.57,6.08,6.08,0,0,1,6-5.57A5.08,5.08,0,0,1,133.61,61.47Z"/></g><g class="cls-5"><path class="cls-3" d="M51.81,50.69A11.75,11.75,0,0,0,40.28,61.44a9.89,9.89,0,0,0,10,10.75A11.76,11.76,0,0,0,61.78,61.44,9.84,9.84,0,0,0,51.81,50.69ZM56.6,61.47a6.07,6.07,0,0,1-6,5.57,5.09,5.09,0,0,1-5.15-5.57,6.08,6.08,0,0,1,6-5.57A5.11,5.11,0,0,1,56.6,61.47Z"/></g><path class="cls-3" d="M60.31,21.23h-2l-.36,5H59.9a2,2,0,0,0,1.58-.69,3,3,0,0,0,.63-1.83C62.26,22.07,61.66,21.23,60.31,21.23Z"/><rect class="cls-1" width="109.67" height="62.76"/><path class="cls-3" d="M106,0H30.1A4.22,4.22,0,0,0,26,3.83L22.8,47.6h-13A1.52,1.52,0,0,0,8.28,49a1.27,1.27,0,0,0,1.28,1.4h17.1a1.32,1.32,0,0,1,1.11,1.38,1.54,1.54,0,0,1-1.29,1.38H1.6a1.52,1.52,0,0,0-1.5,1.4A1.28,1.28,0,0,0,1.39,56H26a.83.83,0,0,0,.27,0h3.62a1.27,1.27,0,0,1,1.29,1.4,1.53,1.53,0,0,1-1.5,1.42H26.12a.63.63,0,0,0-.27,0h-11a1.53,1.53,0,0,0-1.49,1.41,1.27,1.27,0,0,0,1.28,1.41H37.47A14.81,14.81,0,0,1,52,48,12.46,12.46,0,0,1,64.57,61.56h40.84L109.57,4A3.52,3.52,0,0,0,106,0Z"/><text class="cls-6" transform="matrix(1, 0, -0.09, 1, 44.47, 38.76)">F<tspan class="cls-7" x="10.74" y="0">r</tspan><tspan x="19.86" y="0">ee</tspan></text></g></g></svg>