<svg xmlns="http://www.w3.org/2000/svg" viewBox="0 0 150 120.86"><defs><style>.cls-1{fill:#0047ab;fill-rule:evenodd;}.cls-2{font-size:25px;fill:#ffd302;font-family:Oswald-Medium, Oswald;font-weight:500;}.cls-3{letter-spacing:0em;}.cls-4{letter-spacing:0em;}</style></defs><g id="Layer_2" data-name="Layer 2"><g id="Layer_1-2" data-name="Layer 1"><polygon class="cls-1" points="0 41.74 150 41.74 141.56 60.43 150 79.13 0 79.13 8.44 60.43 0 41.74"/><path class="cls-1" d="M92.08,84.65h0l.15,0,.07,0h0l0,0,.09.08,0,0h0l0,0a.91.91,0,0,1,.11.16l1,2.26a.82.82,0,0,0,.2.25l.1,0,0,0a.38.38,0,0,0,.15.05l2.42.36a.65.65,0,0,1,.55.73.62.62,0,0,1-.18.35l-.42.43h0l-1.38,1.39a.65.65,0,0,0-.17.56L95.46,94a.74.74,0,0,1,0,.21v0h0l0,.06,0,.11,0,0,0,0-.13.13,0,0,0,0-.08,0-.09,0h-.29a.64.64,0,0,1-.2-.08l-2.09-1.16a.71.71,0,0,0-.16-.07l-.16,0-.16,0a.41.41,0,0,0-.15.07l-2.1,1.16a.54.54,0,0,1-.21.08H89.2l-.1,0-.07,0,0,0,0,0,0-.07-.07-.06v0l0,0,0-.11,0-.06h0V94l.44-2.56a.65.65,0,0,0-.18-.56l-1.09-1.1-.71-.73a.62.62,0,0,1-.18-.35.64.64,0,0,1,.55-.73L90,87.65a.43.43,0,0,0,.16-.05l0,0,.1,0a.67.67,0,0,0,.19-.25L91.52,85a.54.54,0,0,1,.1-.16l0,0h0l0,0,.1-.08,0,0h0l.08,0h.14Z"/><path class="cls-1" d="M75,84.65h.1l.15,0,.1,0h0l0,0,0,0,.14.11,0,0,0,0a.93.93,0,0,1,.14.22l1.39,3a.82.82,0,0,0,.26.32l.13.07,0,0a.66.66,0,0,0,.2.06l3.21.47a.85.85,0,0,1,.71,1,.8.8,0,0,1-.23.48l-.56.56L79.12,93a.84.84,0,0,0-.23.74l.56,3.38a.66.66,0,0,1,0,.28v.06l0,.07,0,.15,0,0,0,0-.08.09-.08.1,0,0,0,0L79,98l-.12.06h-.38a.74.74,0,0,1-.27-.1l-2.77-1.54a.78.78,0,0,0-.21-.09l-.21,0-.21,0a.78.78,0,0,0-.21.09L71.81,98a.74.74,0,0,1-.27.1h-.38L71,98l-.11,0,0,0,0,0-.08-.1-.08-.09,0,0,0,0-.08-.22v-.06a.66.66,0,0,1,0-.28l.56-3.38a.84.84,0,0,0-.23-.74l-1.44-1.47-.94-.95a.87.87,0,0,1-.23-.48.85.85,0,0,1,.71-1l3.21-.47a.66.66,0,0,0,.2-.06l.06,0,.12-.07a.74.74,0,0,0,.26-.32l1.39-3a.93.93,0,0,1,.14-.22l0,0,0,0,.14-.11,0,0,0,0h0l.1,0,.15,0Z"/><path class="cls-1" d="M57.88,84.65h.18l.08,0h0l0,0,.1.08,0,0h0l0,0a.54.54,0,0,1,.1.16l1.06,2.26a.67.67,0,0,0,.19.25l.1,0,0,0a.43.43,0,0,0,.16.05l2.41.36a.64.64,0,0,1,.55.73.62.62,0,0,1-.18.35l-.42.43h0L61,90.92a.65.65,0,0,0-.18.56L61.27,94a1.48,1.48,0,0,1,0,.21v0h0l0,.06,0,.11,0,0v0l-.07.06,0,.07,0,0,0,0-.07,0-.1,0h-.28a.6.6,0,0,1-.21-.08l-2.1-1.16a.41.41,0,0,0-.15-.07l-.16,0-.16,0a.71.71,0,0,0-.16.07L55.49,94.7a.64.64,0,0,1-.2.08H55l-.09,0-.08,0,0,0,0,0-.13-.13,0,0,0,0,0-.11,0-.06h0v0a.74.74,0,0,1,0-.21L55,91.48a.65.65,0,0,0-.17-.56l-1.09-1.1L53,89.09a.62.62,0,0,1-.18-.35.65.65,0,0,1,.55-.73l2.42-.36a.38.38,0,0,0,.15-.05l0,0,.1,0a.82.82,0,0,0,.2-.25l1-2.26a.91.91,0,0,1,.11-.16l0,0h0l0,0,.09-.08,0,0h0l.07,0Z"/><path class="cls-1" d="M19.28,84.11H36.93l.87,1.42a44.86,44.86,0,0,0,74.4,0l.87-1.42h17.69l-.1.21A4.53,4.53,0,0,1,128.74,86a4.5,4.5,0,0,0-2.58,4.83,4.52,4.52,0,0,1-3.41,5.12,4.47,4.47,0,0,0-3.47,4.23,4.49,4.49,0,0,1-4.35,4.34,4.5,4.5,0,0,0-4.24,3.48,4.51,4.51,0,0,1-5.12,3.43,4.49,4.49,0,0,0-4.83,2.58,4.49,4.49,0,0,1-4,2.64l-.52-.09h0a4.54,4.54,0,0,1-1.69-.3l-1-.19-1.38.19a4.43,4.43,0,0,0-2.35,1.68,4.48,4.48,0,0,1-4.44,1.81l-.24-.09h-.29a4.51,4.51,0,0,1-1.58-.61L82,118.52,81,118.46a4.42,4.42,0,0,0-2.63,1.19,4.51,4.51,0,0,1-3.08,1.21l-.48-.08h0a4.51,4.51,0,0,1-3.08-1.21,4.37,4.37,0,0,0-1.23-.83l-1-.27-1.28.08a4.66,4.66,0,0,0-1.38.56,4.51,4.51,0,0,1-3.24.59l-.17-.07H63a4.51,4.51,0,0,1-2.78-1.79,4.51,4.51,0,0,0-1-1l-1.29-.62-.92-.13a4.62,4.62,0,0,0-1.45.29,4.53,4.53,0,0,1-1.69.29l-.44-.09h-.09a4.49,4.49,0,0,1-4-2.64,4.47,4.47,0,0,0-2-2.11l-1.14-.4H45a4.67,4.67,0,0,1-1.71,0l-.16-.06h-.37a4.53,4.53,0,0,1-3.41-3.37,4.5,4.5,0,0,0-4.24-3.49,4.5,4.5,0,0,1-4.35-4.35,4.49,4.49,0,0,0-3.47-4.23,4.51,4.51,0,0,1-3.41-5.11,4.5,4.5,0,0,0-2.58-4.83,4.55,4.55,0,0,1-1.92-1.65Z"/><path class="cls-1" d="M92.08,26.26h.19l.07,0h0l0,0,.09.08,0,0h0l0,0a.91.91,0,0,1,.11.16l1,2.26a1,1,0,0,0,.2.25l.1.05,0,0,.15.05,2.42.35a.65.65,0,0,1,.55.73.69.69,0,0,1-.18.36l-.42.43-1.38,1.4a.65.65,0,0,0-.17.56l.42,2.55a.81.81,0,0,1,0,.22v0l0,.05,0,.11,0,.07-.06.06-.07.07,0,0h0l-.08,0-.09,0h-.29a1,1,0,0,1-.2-.08l-2.09-1.17-.16-.06-.16,0-.16,0a.39.39,0,0,0-.15.06l-2.1,1.17a.76.76,0,0,1-.21.08H89.2l-.1,0-.07,0h0l0,0,0-.07-.07-.06v0l0,0,0-.11,0-.05v-.26l.44-2.55a.65.65,0,0,0-.18-.56l-1.09-1.1-.71-.73a.69.69,0,0,1-.18-.36.64.64,0,0,1,.55-.73L90,29.26l.16-.05,0,0,.1-.05a.76.76,0,0,0,.19-.25l1.06-2.26a.54.54,0,0,1,.1-.16l0,0h0l0,0,.1-.08,0,0h0l.08,0h.14Z"/><path class="cls-1" d="M57.88,26.26h.18l.08,0h0l0,0,.1.08,0,0h0l0,0a.54.54,0,0,1,.1.16l1.06,2.26a.76.76,0,0,0,.19.25l.1.05,0,0,.16.05,2.41.35a.64.64,0,0,1,.55.73.69.69,0,0,1-.18.36l-.42.43L61,32.53a.65.65,0,0,0-.18.56l.44,2.55a1.62,1.62,0,0,1,0,.22v0l0,.05,0,.11,0,0v0l-.07.06,0,.07,0,0h0l-.07,0-.1,0h-.28a.9.9,0,0,1-.21-.08l-2.1-1.17a.39.39,0,0,0-.15-.06l-.16,0-.16,0-.16.06-2.09,1.17a1,1,0,0,1-.2.08H55l-.09,0-.08,0h0l0,0-.07-.07-.06-.06,0-.07,0-.11,0-.05v0a.81.81,0,0,1,0-.22L55,33.09a.65.65,0,0,0-.17-.56l-1.09-1.1L53,30.7a.69.69,0,0,1-.18-.36.65.65,0,0,1,.55-.73l2.42-.35.15-.05,0,0,.1-.05a1,1,0,0,0,.2-.25l1-2.26a.91.91,0,0,1,.11-.16l0,0h0l0,0,.09-.08,0,0h0l.07,0h.15Z"/><path class="cls-1" d="M75,22.8h.25l.1,0,0,0h0l0,0,.14.11,0,0h0l0,0a1.64,1.64,0,0,1,.14.22l1.39,3a.82.82,0,0,0,.26.32l.13.08,0,0a1.17,1.17,0,0,0,.2.06l3.21.47a.85.85,0,0,1,.71,1,.78.78,0,0,1-.23.47l-.56.57L79.12,31.1a.85.85,0,0,0-.23.74l.56,3.38a.71.71,0,0,1,0,.29v.05l0,.08,0,.14,0,0,0,0-.08.09-.08.09,0,0,0,0-.11,0-.12.06h0l0,0h-.29a1,1,0,0,1-.27-.1l-2.77-1.55a.76.76,0,0,0-.21-.08l-.21,0-.21,0a.76.76,0,0,0-.21.08l-2.77,1.55a1,1,0,0,1-.27.1h-.29l0,0h0L71,36.13l-.11,0,0,0,0,0L70.78,36l-.08-.09,0,0,0,0-.08-.22v-.05a.71.71,0,0,1,0-.29l.56-3.38a.85.85,0,0,0-.23-.74l-1.44-1.46-.94-1a.84.84,0,0,1-.23-.47.85.85,0,0,1,.71-1l3.21-.47a1.17,1.17,0,0,0,.2-.06l.06,0,.12-.08a.74.74,0,0,0,.26-.32l1.39-3a1.64,1.64,0,0,1,.14-.22l0,0h0l0,0,.14-.11,0,0h0l0,0,.1,0H75Z"/><path class="cls-1" d="M74.72,0l.5.09h.06A4.45,4.45,0,0,1,78.35,1.3a4.48,4.48,0,0,0,1.23.82l1,.28,1.25-.08a4.53,4.53,0,0,0,1.37-.57,4.49,4.49,0,0,1,3.25-.59l.2.07h.35A4.53,4.53,0,0,1,89.83,3a4.36,4.36,0,0,0,1,1.05l1.27.63.92.12a4.62,4.62,0,0,0,1.46-.29,4.36,4.36,0,0,1,1.69-.29l.46.09h.08a4.51,4.51,0,0,1,4,2.65,4.47,4.47,0,0,0,2,2.11l1.12.38h1.2a4.45,4.45,0,0,1,1.71,0l.17.07h.36A4.51,4.51,0,0,1,110.7,13a4.48,4.48,0,0,0,4.22,3.47,4.5,4.5,0,0,1,4.35,4.35A4.5,4.5,0,0,0,122.75,25a4.49,4.49,0,0,1,3.42,5.11A4.49,4.49,0,0,0,128.76,35a4.59,4.59,0,0,1,1.91,1.65l0,.06H113l-.83-1.35a44.86,44.86,0,0,0-74.4,0L37,36.69H19.26l.07-.15a4.56,4.56,0,0,1,1.91-1.64,4.5,4.5,0,0,0,2.59-4.83A4.5,4.5,0,0,1,27.25,25a4.49,4.49,0,0,0,3.48-4.23,4.5,4.5,0,0,1,4.35-4.35A4.49,4.49,0,0,0,39.3,12.9a4.5,4.5,0,0,1,5.11-3.42A4.51,4.51,0,0,0,49.25,6.9a4.5,4.5,0,0,1,4-2.65l.51.09h0a4.54,4.54,0,0,1,1.68.29l1,.2,1.36-.18A4.54,4.54,0,0,0,60.17,3,4.51,4.51,0,0,1,64.6,1.14l.23.08h.32a4.68,4.68,0,0,1,1.6.61L68,2.34l1,.07a4.49,4.49,0,0,0,2.63-1.2A4.53,4.53,0,0,1,74.72,0Z"/><text class="cls-2" transform="translate(25.2 69.79)">Best <tspan class="cls-3" x="49.4" y="0">P</tspan><tspan x="62.47" y="0">ri</tspan><tspan class="cls-4" x="77.5" y="0">c</tspan><tspan x="88.45" y="0">e</tspan></text></g></g></svg>